<svg aria-hidden="true" style="width:0;height:0;position:absolute;overflow:hidden" xmlns="http://www.w3.org/2000/svg"><defs><symbol id="icon-facebook" viewBox="0 0 31 32"><path fill="#fff" style="fill:var(--color1,#fff)" d="M31.191 16c0 8.569-6.947 15.517-15.515 15.517C7.104 31.517.157 24.569.157 16 .157 7.429 7.104.483 15.676.483 24.244.483 31.191 7.429 31.191 16zm-18.108 9.698h4.027v-9.691h2.719l.352-3.423H17.11v-2.013c0-.755.502-.932.854-.932h2.167V6.315l-2.983-.012c-3.312 0-4.065 2.479-4.065 4.065v2.216h-1.915v3.423h1.915v9.691z"/></symbol><symbol id="icon-logo" viewBox="0 0 235 73"><path d="M26.235.996c-4.963 1.642-7.948 6.494-7.463 12.241.336 3.993 2.425 7.688 5.187 9.106l1.082.56-1.866.933c-2.052 1.045-3.358 2.35-4.627 4.777-.71 1.306-.821 2.127-.821 5.635 0 3.918.074 4.217 1.157 6.158 2.052 3.62 5.672 5.597 10.262 5.597 8.51 0 13.473-7.725 10.562-16.495-.597-1.866-3.098-4.963-4.255-5.336-1.157-.374-.895-.784.784-1.27 1.38-.41 1.53-.559 1.343-1.455-.447-2.201-1.007-3.134-1.679-2.873-2.612 1.007-5.15 1.38-6.979.97-3.508-.784-5.41-3.396-5.41-7.427 0-5.747 3.955-8.434 10.449-7.09 1.53.336 2.836.56 2.873.522.037 0 .224-.933.41-2.015.337-1.94.337-2.015-.634-2.388C35.043.51 28.027.399 26.235.996Zm5.748 26.31c3.955 1.83 5.187 8.472 2.276 12.204-1.008 1.269-3.433 2.35-5.262 2.388-6.158.038-9.292-8.21-4.926-13.024 2.052-2.24 5.075-2.836 7.912-1.568ZM65.644.996c-4.814 1.717-7.426 5.636-7.426 11.233 0 5.15 2.5 9.032 6.904 10.823l2.24.896.111 10.636.075 10.673h4.479V23.761l1.604-.41c9.778-2.613 10.337-18.548.746-22.13-2.35-.859-6.643-.971-8.733-.225Zm6.643 3.994c3.62 1.343 5.374 6.904 3.508 11.009-2.201 4.851-9.218 5.075-11.83.373-2.276-4.03-.784-9.628 3.023-11.27 1.38-.598 3.881-.672 5.3-.112Z" fill="#43291B"/><path d="M38.812 3.086v1.866H45.529v40.305h4.442l.111-5.15.112-5.113 4.59 5.486c2.538 3.06 4.703 5.523 4.815 5.523.448 0 3.844-2.015 3.844-2.276 0-.15-1.829-2.388-4.105-4.926-2.24-2.575-4.105-4.777-4.105-4.926 0-.224 4.478-5.822 7.016-8.845.522-.597.373-.746-1.568-1.642-1.194-.523-2.276-.821-2.463-.672-.15.187-2.015 2.687-4.142 5.56l-3.882 5.225-.112-13.808c-.037-7.576 0-14.032.112-14.256.112-.335 1.195-.485 3.546-.485h3.358V1.22H38.812v1.866ZM133.23 22.828c-3.359 1.082-5.822 3.284-7.24 6.344-1.083 2.426-1.083 7.726.037 10.151 1.082 2.426 3.098 4.516 5.299 5.56l1.904.86v21.532h4.478V49.362h8.21v17.913h4.852V45.257h-9.106l1.679-1.045c3.135-2.015 4.814-5.523 4.814-10.002 0-7.015-4.105-11.345-10.972-11.606-1.679-.037-3.433.038-3.955.224Zm5.56 4.143c1.941.56 3.695 2.463 4.367 4.776 1.94 6.643-3.546 12.092-9.405 9.442-2.799-1.269-4.068-3.806-3.806-7.688.298-5 4.217-7.874 8.844-6.53ZM182.79 23.164c-1.008.299-1.792.672-1.792.784 0 .149 1.754 3.806 3.919 8.21 2.164 4.366 3.844 8.098 3.732 8.285-.112.15-1.157.597-2.351.97-1.157.336-2.165.672-2.24.672-.037.037.15.783.448 1.605l.56 1.567h-6.12l-1.456-10.002c-.784-5.486-1.53-10.412-1.605-11.009-.186-.97-.298-1.007-2.351-1.007-1.716 0-2.201.149-2.425.634-.933 2.389-4.665 12.614-5.225 14.256l-.672 2.015-1.567-4.44c-.896-2.426-2.239-6.233-3.023-8.435l-1.456-4.03h-4.478l-1.605 10.86c-.858 6.008-1.53 10.934-1.455 11.009.075.074 1.157.26 2.388.373l2.202.224.672-6.27c.336-3.47.746-7.128.858-8.135l.224-1.829.672 2.575c.336 1.418 1.493 4.926 2.538 7.8 1.045 2.836 1.903 5.224 1.903 5.299 0 .075-1.157.112-2.612.112h-2.613v22.018H172.079l-.112-1.791-.112-1.754-4.74-.112-4.776-.112v-5.934h8.21V54.251l-3.993-.112-4.031-.112-.112-2.538-.112-2.5H170.549v-3.732h-3.322l2.053-5.896c1.12-3.21 2.276-6.718 2.538-7.725l.485-1.866.224 1.679c.149.933.522 4.18.821 7.277.783 7.128.709 6.904 2.276 6.904h1.269v21.645h4.441l.112-4.03.112-3.993 2.986-.187c5.075-.336 7.426-2.538 7.426-6.867 0-2.799-.821-4.403-2.911-5.635l-1.455-.858 1.866-.821c1.045-.448 2.313-1.232 2.836-1.791.709-.784 4.814-10.077 8.359-18.996.15-.41-.522-.672-3.62-1.418-.933-.224-.97-.112-3.172 6.53-1.231 3.695-2.313 6.718-2.425 6.718-.112 0-1.53-3.023-3.135-6.717-1.605-3.695-3.135-6.718-3.359-6.68-.224 0-1.194.298-2.164.634Zm3.582 26.609c.784.634.97 1.082.97 2.425 0 1.12-.223 1.866-.709 2.352-.783.783-2.761 1.306-4.179 1.082-.859-.112-.896-.261-1.008-3.396l-.112-3.247h2.015c1.493 0 2.277.224 3.023.784ZM0 34.21v11.047h4.478v-8.21h2.538c5.075 0 7.912-2.5 7.912-6.979 0-2.836-.896-4.478-3.023-5.71-1.493-.858-2.127-.933-6.755-1.045L0 23.164v11.047Zm9.591-6.418c1.157 1.082 1.157 3.246 0 4.59-.709.858-1.194 1.008-2.874 1.045l-2.052.074-.112-3.284-.112-3.246h2.127c1.68 0 2.351.186 3.023.82ZM79.117 34.248v11.046l5.523-.112c4.702-.112 5.71-.224 6.979-.895 2.127-1.12 3.172-2.8 3.172-5.15 0-1.792-1.008-4.292-1.754-4.33-.187 0-.597-.26-.97-.522-.598-.485-.598-.56.111-2.127.933-2.09.97-4.665.038-6.158-1.232-1.978-2.948-2.575-8.322-2.687l-4.777-.149v11.084Zm9.068-6.494c.747.933.672 2.165-.224 4.03-.373.822-.709.971-2.425 1.083l-1.941.112v-6.494l1.94.187c1.419.15 2.128.41 2.65 1.082Zm1.306 9.143c.597.411.822.934.822 1.978 0 2.09-.97 2.8-4.143 2.949l-2.575.149V36.3h2.538c1.68 0 2.799.187 3.358.598Z" fill="#43291B"/><path d="M105.613 25.291v2.053h6.718v39.931h5.337c4.776 0 5.485-.074 6.978-.858 2.277-1.12 3.359-2.836 3.359-5.262 0-2.351-.634-3.433-3.06-5.113-.187-.112 0-.933.41-1.866 2.202-4.814-.261-8.434-5.971-8.844l-2.575-.187V27.381l3.471-.112 3.433-.112.112-1.978.112-1.94H105.613v2.052Zm15.674 24.258c.672.709.672 2.65-.037 4.105-.485 1.007-.746 1.12-2.5 1.231l-1.941.112v-6.493l1.978.261c1.045.15 2.202.523 2.5.784Zm1.493 9.516c1.12 1.12 1.008 3.098-.224 4.068-.783.597-1.53.784-3.358.784h-2.389v-5.598h2.613c2.127 0 2.761.149 3.358.746ZM196.299 56.266v11.01H210.48v-3.733h-9.329v-5.971h8.21v-3.359h-8.21V48.99h8.21v-3.732h-13.062v11.01ZM217.459 51.116c-.149 4.59-.373 6.606-1.045 9.069-.821 2.91-.97 3.172-1.903 3.284l-1.045.112V72.5H216.787l.224-1.754c.485-3.881-.261-3.508 6.792-3.396l6.233.112.261 1.12c.149.597.373 1.754.485 2.5.261 1.38.299 1.418 1.903 1.418h1.68v-8.957h-2.239V45.257h-14.48l-.187 5.86Zm10.114 5.225-.112 7.016-3.695.112c-3.657.112-3.695.112-3.433-.747 1.007-3.433 1.716-7.687 1.716-10.3v-3.06h5.598l-.074 6.979Z" fill="#43291B"/></symbol><symbol id="icon-instagram" viewBox="0 0 31 32"><path fill="#fff" style="fill:var(--color1,#fff)" d="M15.673 11.835a4.169 4.169 0 0 0-3.907 2.555 4.154 4.154 0 0 0 .001 3.218 4.17 4.17 0 0 0 3.908 2.555 4.164 4.164 0 0 0-.002-8.329zm0 6.888a2.704 2.704 0 0 1-1.927-.796 2.723 2.723 0 1 1 3.851-3.85 2.73 2.73 0 0 1 .8 1.923 2.725 2.725 0 0 1-1.681 2.517 2.706 2.706 0 0 1-1.043.206zm4.582-8.411a.952.952 0 0 0-.89.594.97.97 0 0 0-.072.369c0 .535.425.96.961.96a.95.95 0 0 0 .891-.592.952.952 0 0 0 .072-.369.952.952 0 0 0-.28-.682.968.968 0 0 0-.682-.28z"/><path fill="#fff" style="fill:var(--color1,#fff)" d="M15.675.483C7.103.483.155 7.428.155 16c0 8.569 6.948 15.517 15.52 15.517 8.567 0 15.517-6.946 15.517-15.517S24.242.483 15.675.483zm8.009 18.929c0 2.532-2.068 4.599-4.614 4.599h-6.792c-2.547 0-4.615-2.068-4.615-4.583v-6.84c0-2.531 2.067-4.598 4.615-4.598h6.792c2.547 0 4.614 2.067 4.614 4.598v6.824z"/></symbol><symbol id="icon-mastercard" viewBox="0 0 2000 1556"><path d="M1960.59 1534.9v4h3.73a3.93 3.93 0 0 0 2-.51 1.78 1.78 0 0 0 .75-1.53 1.71 1.71 0 0 0-.75-1.49 3.59 3.59 0 0 0-2-.51h-3.73Zm3.77-2.83a6.92 6.92 0 0 1 4.48 1.3 4.3 4.3 0 0 1 1.57 3.54 4.06 4.06 0 0 1-1.26 3.11 6.14 6.14 0 0 1-3.58 1.49l5 5.7h-3.85l-4.6-5.66h-1.49v5.66h-3.22v-15.13h7Zm-1 20.36a12 12 0 0 0 4.91-1 12.86 12.86 0 0 0 4-2.71 12.63 12.63 0 0 0 2.71-4 12.94 12.94 0 0 0 0-9.9 13.07 13.07 0 0 0-2.71-4 12.89 12.89 0 0 0-4-2.71 12.59 12.59 0 0 0-4.91-.94 13.12 13.12 0 0 0-5 .94 12.77 12.77 0 0 0-4.09 2.71 12.92 12.92 0 0 0-2.67 14 11.92 11.92 0 0 0 2.67 4 12.81 12.81 0 0 0 4.09 2.71 12.45 12.45 0 0 0 5 1m0-29a16.74 16.74 0 0 1 11.75 4.8 16 16 0 0 1 3.54 5.19 16.09 16.09 0 0 1 0 12.65 16.88 16.88 0 0 1-3.54 5.19 17.85 17.85 0 0 1-5.27 3.5 16.33 16.33 0 0 1-6.48 1.3 16.6 16.6 0 0 1-6.56-1.3 17.08 17.08 0 0 1-5.31-3.5 16.88 16.88 0 0 1-3.49-5.36 16.09 16.09 0 0 1 0-12.65 16 16 0 0 1 3.54-5.19 15.8 15.8 0 0 1 5.31-3.5 16.6 16.6 0 0 1 6.56-1.3M432.16 1465.1c0-28.85 18.9-52.55 49.79-52.55 29.52 0 49.44 22.68 49.44 52.55s-19.92 52.55-49.44 52.55c-30.89 0-49.79-23.7-49.79-52.55m132.88 0V1383h-35.69v20c-11.32-14.78-28.49-24.05-51.84-24.05-46 0-82.1 36.08-82.1 86.19s36.08 86.19 82.1 86.19c23.34 0 40.52-9.28 51.84-24.05v19.93H565v-82.11Zm1205.92 0c0-28.85 18.9-52.55 49.8-52.55 29.55 0 49.44 22.68 49.44 52.55s-19.89 52.55-49.44 52.55c-30.89 0-49.8-23.7-49.8-52.55m132.92 0v-148h-35.72v85.9c-11.32-14.78-28.49-24.05-51.84-24.05-46 0-82.1 36.08-82.1 86.19s36.08 86.19 82.1 86.19c23.35 0 40.52-9.28 51.84-24.05v19.93h35.72v-82.11ZM1008 1410.86c23 0 37.77 14.42 41.54 39.81h-85.16c3.81-23.7 18.2-39.81 43.63-39.81m.71-32c-48.1 0-81.75 35-81.75 86.19 0 52.19 35 86.19 84.14 86.19 24.72 0 47.36-6.17 67.28-23l-17.49-26.45c-13.76 11-31.28 17.17-47.75 17.17-23 0-43.94-10.65-49.09-40.2h121.87c.35-4.44.71-8.92.71-13.72-.36-51.17-32-86.19-77.94-86.19m430.9 86.19c0-28.85 18.9-52.55 49.79-52.55 29.52 0 49.44 22.68 49.44 52.55s-19.92 52.55-49.44 52.55c-30.89 0-49.8-23.7-49.8-52.55m132.88 0V1383h-35.67v20c-11.36-14.78-28.49-24.05-51.84-24.05-46 0-82.1 36.08-82.1 86.19s36.08 86.19 82.1 86.19c23.35 0 40.48-9.28 51.84-24.05v19.93h35.68v-82.11Zm-334.42 0c0 49.79 34.66 86.19 87.56 86.19 24.72 0 41.19-5.5 59-19.57l-17.14-28.85c-13.4 9.63-27.47 14.78-43 14.78-28.49-.35-49.44-20.95-49.44-52.55s20.95-52.19 49.44-52.55c15.49 0 29.56 5.15 43 14.78l17.14-28.85c-17.84-14.07-34.31-19.57-59-19.57-52.9 0-87.56 36.39-87.56 86.19m460.1-86.19c-20.59 0-34 9.63-43.27 24.05V1383h-35.37v164.12h35.73v-92c0-27.16 11.67-42.25 35-42.25a57.87 57.87 0 0 1 22.32 4.13l11-33.64c-7.9-3.11-18.2-4.48-25.43-4.48m-956.64 17.17c-17.17-11.32-40.83-17.17-66.93-17.17-41.58 0-68.35 19.93-68.35 52.54 0 26.76 19.93 43.27 56.63 48.42l16.86 2.4c19.57 2.75 28.81 7.9 28.81 17.17 0 12.69-13 19.93-37.41 19.93-24.72 0-42.56-7.9-54.59-17.17L599.74 1530c19.57 14.42 44.29 21.3 71.06 21.3 47.4 0 74.87-22.32 74.87-53.57 0-28.85-21.62-43.94-57.34-49.09l-16.82-2.44c-15.45-2-27.83-5.11-27.83-16.11 0-12 11.67-19.22 31.25-19.22 20.95 0 41.23 7.9 51.17 14.07l15.45-28.85Zm460.51-17.14c-20.59 0-34 9.63-43.23 24.05V1383h-35.37v164.12h35.69v-92c0-27.16 11.67-42.25 35-42.25a57.87 57.87 0 0 1 22.32 4.13l11-33.64c-7.9-3.11-18.2-4.48-25.43-4.48M897.44 1383h-58.36v-49.79H803V1383h-33.29v32.62H803v74.87c0 38.08 14.78 60.76 57 60.76 15.49 0 33.33-4.8 44.65-12.69L894.34 1508c-10.65 6.17-22.32 9.28-31.6 9.28-17.84 0-23.66-11-23.66-27.47v-74.16h58.36Zm-533.59 164.16v-103c0-38.79-24.72-64.89-64.57-65.24-20.95-.35-42.56 6.17-57.69 29.2-11.32-18.2-29.16-29.2-54.24-29.2-17.53 0-34.66 5.15-48.07 24.37V1383h-35.72v164.12h36v-91c0-28.49 15.8-43.63 40.2-43.63 23.7 0 35.69 15.45 35.69 43.27v91.34h36.08v-91c0-28.49 16.47-43.63 40.16-43.63 24.37 0 36 15.45 36 43.27v91.34Z" style="fill:#231f20"/><path d="M1980.94 1001.22v-24h-6.25l-7.23 16.47-7.19-16.47H1954v24h4.44v-18.08l6.76 15.6h4.6l6.76-15.64v18.12h4.4Zm-39.65 0v-19.89h8v-4.05h-20.44v4.05h8v19.89h4.4Z" style="fill:#f79410"/><path d="M1270.57 1104.15H729.71v-972h540.87Z" style="fill:#ff5f00"/><path d="M764 618.17c0-197.17 92.32-372.81 236.08-486A615.46 615.46 0 0 0 618.09 0C276.72 0 0 276.76 0 618.17s276.72 618.17 618.09 618.17a615.46 615.46 0 0 0 382-132.17C856.34 991 764 815.35 764 618.17" style="fill:#eb001b"/><path d="M2000.25 618.17c0 341.41-276.72 618.17-618.09 618.17a615.65 615.65 0 0 1-382.05-132.17c143.8-113.19 236.12-288.82 236.12-486s-92.32-372.81-236.12-486A615.65 615.65 0 0 1 1382.15 0c341.37 0 618.09 276.76 618.09 618.17" style="fill:#f79e1b"/></symbol><symbol id="icon-visa" viewBox="0 0 1000.046 323.653"><path style="fill:#00579f" d="M116.145 95.719H97.858l11.438-70.724h18.286zm66.292-68.995c-3.607-1.431-9.328-3.011-16.402-3.011-18.059 0-30.776 9.63-30.854 23.398-.15 10.158 9.105 15.8 16.027 19.187 7.075 3.461 9.48 5.72 9.48 8.805-.072 4.738-5.717 6.922-10.982 6.922-7.301 0-11.213-1.126-17.158-3.762l-2.408-1.13-2.559 15.876c4.289 1.954 12.191 3.688 20.395 3.764 19.188 0 31.68-9.481 31.828-24.153.073-8.051-4.814-14.22-15.35-19.261-6.396-3.236-10.313-5.418-10.313-8.729.075-3.01 3.313-6.093 10.533-6.093 5.945-.151 10.313 1.278 13.622 2.708l1.654.751 2.487-15.272zm24.305 43.94c1.506-4.063 7.301-19.788 7.301-19.788-.076.151 1.503-4.138 2.406-6.771l1.278 6.094s3.463 16.929 4.215 20.465h-15.2zm22.573-45.669H215.17c-4.362 0-7.676 1.278-9.558 5.868l-27.163 64.855h19.188s3.159-8.729 3.838-10.609h23.479c.525 2.483 2.182 10.609 2.182 10.609h16.932l-14.753-70.723zm-146.731 0L64.675 73.222l-1.957-9.781c-3.311-11.286-13.695-23.548-25.283-29.645l16.404 61.848h19.338l28.744-70.649H82.584z" transform="translate(-81.166 -105.048) scale(4.42996)"/><path d="M48.045 24.995H18.623l-.301 1.429c22.951 5.869 38.151 20.016 44.396 37.02L56.322 30.94c-1.053-4.517-4.289-5.796-8.277-5.945z" style="fill:#faa61a" transform="translate(-81.166 -105.048) scale(4.42996)"/></symbol><symbol id="modal-close" viewBox="0 0 23 23"><g fill="#fff" fill-rule="evenodd"><path transform="rotate(-45 11.314 11.314)" d="M10.314-3.686h2v30h-2z"/><path transform="rotate(45 11.314 11.314)" d="M10.314-3.686h2v30h-2z"/></g></symbol></defs></svg>