<svg viewBox="0 0 115 36" fill="none" xmlns="http://www.w3.org/2000/svg">
  <path d="M13.005.902c-2.415.793-3.867 3.137-3.63 5.914.162 1.93 1.18 3.715 2.522 4.4l.527.27-.908.451c-.998.505-1.634 1.136-2.25 2.308-.346.631-.4 1.028-.4 2.723 0 1.893.036 2.037.563 2.975.998 1.749 2.759 2.704 4.992 2.704 4.139 0 6.553-3.732 5.137-7.97-.29-.9-1.507-2.397-2.07-2.578-.562-.18-.435-.378.382-.613.671-.198.744-.27.653-.703-.218-1.064-.49-1.515-.817-1.388-1.27.486-2.505.667-3.394.468-1.707-.378-2.632-1.64-2.632-3.588 0-2.777 1.924-4.075 5.082-3.426.745.163 1.38.27 1.398.253.018 0 .109-.451.2-.974.163-.937.163-.974-.309-1.154-.762-.306-4.175-.36-5.046-.072ZM15.8 13.614c1.924.883 2.523 4.093 1.108 5.896-.49.613-1.67 1.136-2.56 1.154-2.995.018-4.52-3.967-2.396-6.293.998-1.082 2.469-1.37 3.848-.757ZM32.174.902c-2.341.83-3.612 2.723-3.612 5.427 0 2.489 1.216 4.364 3.358 5.23l1.09.432.054 5.139.036 5.157h2.178V11.9l.78-.198c4.757-1.263 5.03-8.962.364-10.693-1.144-.415-3.231-.469-4.248-.108Zm3.231 1.93c1.761.648 2.614 3.335 1.707 5.318-1.071 2.344-4.484 2.453-5.755.18-1.107-1.947-.38-4.651 1.47-5.445.672-.288 1.889-.324 2.578-.054Z" fill="#43291B"/>
  <path d="M19.122 1.912v.901h3.268v19.474h2.16l.055-2.488.054-2.47 2.233 2.65c1.234 1.478 2.287 2.669 2.341 2.669.218 0 1.87-.974 1.87-1.1 0-.073-.89-1.154-1.997-2.38-1.089-1.245-1.996-2.308-1.996-2.38 0-.109 2.178-2.813 3.412-4.274.255-.288.182-.36-.762-.793-.581-.253-1.107-.397-1.198-.325-.073.09-.98 1.298-2.015 2.687l-1.888 2.524-.054-6.671c-.019-3.66 0-6.78.054-6.888.054-.163.58-.235 1.725-.235h1.633V1.01h-8.895v.902ZM65.049 11.45c-1.634.523-2.832 1.587-3.522 3.066-.526 1.171-.526 3.732.018 4.904.527 1.172 1.507 2.182 2.578 2.686l.926.415v10.404h2.178V24.27h3.994V32.925h2.36V22.286h-4.429l.816-.504c1.525-.974 2.342-2.669 2.342-4.832 0-3.39-1.997-5.482-5.337-5.608-.817-.018-1.67.018-1.924.108Zm2.705 2.002c.944.27 1.797 1.19 2.124 2.308.944 3.21-1.725 5.842-4.575 4.562-1.361-.614-1.978-1.84-1.851-3.715.145-2.416 2.05-3.804 4.302-3.155ZM89.156 11.613c-.49.144-.871.324-.871.378 0 .072.853 1.84 1.906 3.967 1.053 2.11 1.87 3.913 1.815 4.003-.055.072-.563.288-1.144.469-.562.162-1.052.324-1.089.324-.018.018.073.379.218.775l.272.758H87.286l-.708-4.832c-.38-2.651-.744-5.031-.78-5.32-.091-.468-.145-.486-1.144-.486-.835 0-1.07.072-1.18.306a393.81 393.81 0 0 0-2.541 6.888l-.327.974-.762-2.146c-.436-1.172-1.09-3.011-1.47-4.075l-.709-1.947H75.486l-.78 5.247c-.417 2.903-.744 5.283-.708 5.319.037.036.563.126 1.162.18l1.071.108.327-3.029c.163-1.677.363-3.444.417-3.93l.11-.884.326 1.244c.163.685.726 2.38 1.234 3.768.509 1.37.926 2.525.926 2.56 0 .037-.562.055-1.27.055H77.03v10.639h6.917l-.055-.866-.055-.848-2.305-.054-2.324-.054v-2.867h3.994v-1.605l-1.942-.054-1.961-.054-.055-1.226-.054-1.208H83.202v-1.803h-1.616l.999-2.85c.544-1.55 1.107-3.245 1.234-3.732l.236-.901.109.811c.073.451.254 2.02.4 3.516.38 3.444.344 3.336 1.107 3.336h.617v10.458h2.16l.055-1.947.054-1.93 1.452-.09c2.469-.162 3.613-1.226 3.613-3.317 0-1.353-.4-2.128-1.416-2.723l-.708-.415.907-.396c.509-.217 1.126-.595 1.38-.866.345-.379 2.342-4.868 4.066-9.178.073-.198-.254-.324-1.76-.685-.454-.108-.473-.054-1.544 3.155-.599 1.786-1.125 3.246-1.18 3.246-.054 0-.744-1.46-1.524-3.245-.78-1.786-1.525-3.246-1.634-3.228-.109 0-.581.144-1.053.307Zm1.743 12.856c.38.306.472.522.472 1.172 0 .54-.11.901-.345 1.136-.382.378-1.344.63-2.033.522-.418-.054-.436-.126-.49-1.64l-.055-1.569h.98c.726 0 1.108.108 1.47.379ZM.243 16.95v5.337H2.422V18.32h1.234c2.469 0 3.848-1.208 3.848-3.372 0-1.37-.435-2.164-1.47-2.759-.726-.414-1.035-.45-3.286-.505l-2.505-.072v5.338Zm4.666-3.102c.562.523.562 1.569 0 2.218-.345.415-.581.487-1.398.505l-.999.036-.054-1.587-.055-1.569h1.035c.817 0 1.144.09 1.47.397ZM38.727 16.968v5.337l2.687-.054c2.287-.054 2.777-.109 3.395-.433 1.034-.541 1.543-1.352 1.543-2.488 0-.866-.49-2.074-.854-2.092-.09 0-.29-.126-.471-.252-.291-.235-.291-.27.054-1.028.454-1.01.472-2.254.018-2.975-.599-.956-1.434-1.244-4.048-1.299l-2.324-.072v5.356Zm4.412-3.138c.363.451.326 1.046-.11 1.948-.18.396-.344.468-1.18.522l-.943.055v-3.138l.944.09c.69.072 1.034.199 1.289.523Zm.635 4.418c.29.198.4.45.4.955 0 1.01-.473 1.353-2.016 1.425l-1.252.072v-2.74h1.234c.817 0 1.362.09 1.634.288Z" fill="#43291B"/>
  <path d="M51.616 12.64v.992h3.267v19.293h2.596c2.324 0 2.669-.036 3.395-.414 1.107-.542 1.634-1.37 1.634-2.543 0-1.136-.309-1.659-1.489-2.47-.09-.054 0-.451.2-.902 1.07-2.326-.127-4.075-2.905-4.273l-1.252-.09V13.65l1.688-.054 1.67-.054.055-.956.054-.938h-8.913v.992Zm7.624 11.72c.327.343.327 1.28-.018 1.984-.236.487-.363.54-1.216.595l-.944.054v-3.137l.962.126c.508.072 1.07.252 1.216.378Zm.726 4.598c.545.541.49 1.497-.109 1.966-.38.288-.744.378-1.633.378h-1.162v-2.704h1.27c1.035 0 1.344.072 1.634.36ZM95.727 27.606v5.32h6.899v-1.804h-4.539v-2.885h3.994V26.614h-3.994V24.09h3.994v-1.803h-6.354v5.319ZM106.02 25.118c-.073 2.218-.182 3.191-.508 4.381-.4 1.407-.472 1.533-.926 1.587l-.508.054v4.309h1.615l.109-.847c.236-1.875-.127-1.695 3.304-1.64l3.032.053.127.541c.072.289.181.848.236 1.208.127.667.145.685.925.685h.817v-4.327h-1.089v-8.835H106.111l-.091 2.83Zm4.919 2.524-.054 3.39-1.797.054c-1.779.054-1.797.054-1.67-.36.49-1.66.835-3.715.835-4.977V24.27h2.723l-.037 3.372Z" fill="#43291B"/>
</svg>
